<svg class="icon icon-accordion icon-melt-valley" aria-hidden="true" focusable="false" viewBox="0 0 80 29" fill="none" xmlns="http://www.w3.org/2000/svg">
<path fill="none" d="M1.00024 12.6667C4.67701 12.0185 13.3886 10.0302 17.9396 7.22222C21.0912 5.27778 25.4245 2.94444 26.2124 1H43.9396L54.1821 6.44444L56.1518 8.77778L59.6972 8.38889L62.4548 9.94444L67.9699 12.6667H72.3033H75.8487L79.0002 15" stroke="currentColor" stroke-width="2" stroke-linecap="round"/>
<path fill="none" d="M1.00024 16.8462C5.17894 16.7179 14.3982 16.1538 17.8456 14.9231C22.1549 13.3846 23.7219 13 24.1136 13C24.5054 13 25.2889 13.3846 29.2064 14.1538C32.3404 14.7692 37.3026 13.641 39.392 13L45.2683 14.1538L51.9281 14.9231L62.1136 15.3077L70.3404 18L75.0415 15.6923L79.5002 18.5" stroke="currentColor" stroke-linecap="round"/>
<path fill="none" d="M31.0002 14.5L25.6413 18.5294L23.2567 21L18.8849 22.2353L16.5002 25.1176L12.5259 25.9412L7.75665 26.3529L2.58999 28H1.00024" stroke="currentColor" stroke-linecap="round"/>
<path fill="none" d="M79.5002 26.5C76.0002 27 65.9109 27.7571 64.0002 26.5C61.6119 24.9286 56.2624 24.4643 54.6701 24.0714C53.3964 23.7571 50.9549 23.1548 49.8934 22.8929C48.4339 23.2857 44.9575 23.6786 42.7284 22.1071C40.4993 20.5357 36.7575 19.619 35.1653 19.3571C33.175 18.9643 28.9556 17.9429 28.0002 17" stroke="currentColor" stroke-linecap="round"/>
</svg>
